<svg width="260" height="147" viewBox="0 0 260 147" fill="none" xmlns="http://www.w3.org/2000/svg">
<rect width="260" height="147" rx="15" fill="#F0F1F3"/>
<g clip-path="url(#clip0)">
<path d="M169.583 45.6772H162.956C163.83 44.292 164.407 42.7372 164.572 41.0928C165.097 35.8376 162.333 31.1267 157.627 29.0381C153.302 27.1183 148.441 27.9031 144.94 31.0818L136.572 38.6752C134.943 36.8905 132.6 35.7689 130 35.7689C127.395 35.7689 125.049 36.8941 123.419 38.6843L115.04 31.0809C111.534 27.9022 106.675 27.1204 102.352 29.0392C97.6472 31.1279 94.8825 35.8405 95.4096 41.0955C95.5744 42.7386 96.1509 44.2927 97.0248 45.6772H90.4169C87.1376 45.6772 84.4795 48.3389 84.4795 51.6221V60.5396C84.4795 62.1811 85.8087 63.5121 87.4483 63.5121H172.552C174.191 63.5121 175.521 62.1813 175.521 60.5396V51.6221C175.52 48.3389 172.862 45.6772 169.583 45.6772ZM121.094 44.6864V45.6772H107.128C103.438 45.6772 100.534 42.2328 101.455 38.3861C101.861 36.692 103.082 35.2479 104.662 34.5169C106.831 33.5131 109.234 33.8354 111.055 35.4863L121.096 44.5988C121.096 44.6282 121.094 44.657 121.094 44.6864ZM158.68 40.3036C158.459 43.3931 155.672 45.6775 152.579 45.6775H138.906V44.6867C138.906 44.6517 138.904 44.6169 138.904 44.5819C141.178 42.5173 146.113 38.0393 148.789 35.6103C150.31 34.2299 152.438 33.5856 154.406 34.1731C157.229 35.0163 158.887 37.4202 158.68 40.3036Z" fill="#D3D6DA"/>
<path d="M90.4169 69.457V113.054C90.4169 116.337 93.075 118.999 96.3543 118.999H124.062V69.457H90.4169Z" fill="#D3D6DA"/>
<path d="M135.937 69.457V118.999H163.645C166.925 118.999 169.583 116.337 169.583 113.054V69.457H135.937Z" fill="#D3D6DA"/>
</g>
<defs>
<clipPath id="clip0">
<rect width="91.041" height="91.1564" fill="white" transform="translate(84.4795 27.9219)"/>
</clipPath>
</defs>
</svg>
