<svg width="48" height="16" viewBox="0 0 48 16" fill="none" xmlns="http://www.w3.org/2000/svg">
<path d="M1.52271 7C0.97042 7 0.522705 7.44772 0.522705 8C0.522705 8.55228 0.97042 9 1.52271 9V7ZM46.9904 8.70711C47.381 8.31658 47.381 7.68342 46.9904 7.29289L40.6265 0.928932C40.2359 0.538408 39.6028 0.538408 39.2123 0.928932C38.8217 1.31946 38.8217 1.95262 39.2123 2.34315L44.8691 8L39.2123 13.6569C38.8217 14.0474 38.8217 14.6805 39.2123 15.0711C39.6028 15.4616 40.2359 15.4616 40.6265 15.0711L46.9904 8.70711ZM1.52271 9H46.2833V7H1.52271V9Z" fill="#FF8626"/>
</svg>
