<svg width="20" height="16" viewBox="0 0 20 16" fill="none" xmlns="http://www.w3.org/2000/svg">
<path d="M14.8247 4.78161H2.98176L5.40476 2.35861C5.74585 2.01752 5.74585 1.46461 5.40476 1.12352C5.06358 0.782344 4.51077 0.782441 4.16959 1.12352L0.255812 5.03749C-0.0852708 5.37858 -0.0852708 5.93149 0.255812 6.27257L4.16959 10.1863C4.34018 10.3569 4.56365 10.4421 4.78713 10.4421C5.0106 10.4421 5.23408 10.3568 5.40467 10.1863C5.74575 9.84526 5.74575 9.29235 5.40467 8.95127L2.98166 6.52826H14.8246C16.7151 6.52826 18.2533 8.06639 18.2533 9.95695C18.2533 11.8475 16.7151 13.3856 14.8246 13.3856H7.6204C7.13803 13.3856 6.74707 13.7766 6.74707 14.259C6.74707 14.7413 7.13803 15.1323 7.6204 15.1323H14.8246C17.6782 15.1323 19.9999 12.8106 19.9999 9.95695C19.9999 7.1033 17.6783 4.78161 14.8247 4.78161Z" fill="#FF8626"/>
</svg>
