<svg width="50" height="50" viewBox="0 0 50 50" fill="none" xmlns="http://www.w3.org/2000/svg">
<path d="M0 15C0 6.71573 6.71573 0 15 0H35C43.2843 0 50 6.71573 50 15V35C50 43.2843 43.2843 50 35 50H15C6.71573 50 0 43.2843 0 35V15Z" fill="white"/>
<path opacity="0.4" fill-rule="evenodd" clip-rule="evenodd" d="M17.7023 11.8714C13.2758 11.8714 9.28662 14.7455 9.28662 19.1304L9.71599 29.3383C9.71599 33.7232 13.2758 38.9791 17.7023 38.9791H31.671C36.0975 38.9791 39.6858 35.4245 39.6858 31.0396V23.6652C39.8726 21.8477 37.2142 20.2378 35.4779 22.1077C33.7417 23.9776 29.8962 27.5699 29.4668 28.0623C28.379 29.31 27.6246 29.5427 26.8906 30.189C25.8601 31.0964 24.6223 33.2555 22.6888 31.7202C20.7553 30.1848 15.9795 27.0146 14.5723 24.8809C13.6883 24.0167 13.6883 22.6033 14.5723 21.7391C15.4399 20.8909 17.2354 19.9835 18.103 20.8317L23.0323 25.1916C23.9249 26.0642 27.7166 24.2574 28.6081 23.3837C32.443 20.5107 33.2899 19.8644 37.2779 16.9919C38.0273 16.2575 39.5551 14.1579 38.8271 13.4026C37.3676 11.8883 35.4971 10.2268 33.2167 10.2268L17.7023 11.8714Z" fill="#FF8626"/>
<path opacity="0.3" fill-rule="evenodd" clip-rule="evenodd" d="M15.7269 10C11.3004 10 9 14.2919 9 18.6767V29.9055C9 34.2903 12.5884 37.845 17.0148 37.845H30.9835C35.41 37.845 38.9984 34.2903 38.9984 29.9055V22.531C39.3409 21.0341 36.7678 19.7981 35.0483 21.6825C33.4959 23.3838 31.184 25.0851 30.3253 25.9358C29.4666 26.7864 27.6176 28.6539 26.461 29.3384C25.3044 30.0229 23.7808 32.0835 21.3657 30.189C18.9506 28.2946 15.238 26.016 13.6333 23.9254C12.7493 23.0612 13.3256 21.7822 14.2096 20.918C15.0773 20.0698 16.472 20.0698 17.3397 20.918L22.3448 24.0574C23.2374 24.93 23.8519 27.8302 24.7434 26.9565C28.5783 24.0835 36.2792 18.2515 37.1952 17.8545C38.8266 17.1474 39.6281 14.7637 38.8266 13.4026C38.0251 12.0416 35.3344 10 33.0445 10C30.7545 10 15.7269 10 15.7269 10Z" fill="#FF8626"/>
<path fill-rule="evenodd" clip-rule="evenodd" d="M17.8166 10.2836C13.3901 10.2836 9.80176 13.8382 9.80176 18.2231V32.0605C9.80176 36.4453 13.3901 40 17.8166 40H31.7853C36.2118 40 39.8001 36.4453 39.8001 32.0605V24.686C39.8001 22.6712 37.3462 21.6563 35.9 23.0731L26.3681 32.4105C25.4756 33.2848 24.0389 33.2844 23.1469 32.4097L15.5251 24.9355C14.6437 24.0711 14.6448 22.66 15.5276 21.797C16.3963 20.9477 17.7933 20.9492 18.6601 21.8004L23.9518 26.9962C24.3978 27.4342 25.1167 27.4345 25.5631 26.997L37.3922 15.4041C38.1416 14.6696 38.311 13.4965 37.583 12.7412C36.1236 11.2269 34.0656 10.2836 31.7853 10.2836H17.8166Z" fill="#FF8626"/>
</svg>
