<svg width="20" height="20" viewBox="0 0 20 20" fill="none" xmlns="http://www.w3.org/2000/svg">
<g clip-path="url(#clip0)">
<path d="M16.7992 10.9375H5.9377C5.41995 10.9375 5.00021 10.5178 5.00021 10C5.00021 9.48226 5.41995 9.06251 5.9377 9.06251H16.7992L15.5871 7.85039C15.221 7.48427 15.221 6.89071 15.5871 6.52459C15.9531 6.15847 16.5468 6.15847 16.9129 6.52459L19.7253 9.33701C19.7472 9.35895 19.7679 9.38195 19.7876 9.40595C19.7961 9.41638 19.8036 9.42745 19.8116 9.43813C19.8219 9.45188 19.8326 9.46532 19.8421 9.47963C19.8509 9.4927 19.8584 9.50626 19.8664 9.51963C19.8741 9.53251 19.8822 9.54507 19.8893 9.55832C19.8966 9.57207 19.9028 9.58619 19.9094 9.60019C19.9159 9.61388 19.9228 9.62738 19.9286 9.64138C19.9342 9.65507 19.9388 9.66901 19.9438 9.68288C19.9492 9.69788 19.9549 9.71269 19.9596 9.72801C19.9638 9.74188 19.9668 9.75594 19.9703 9.77001C19.9743 9.78557 19.9786 9.80107 19.9818 9.81694C19.9849 9.83313 19.9869 9.84951 19.9892 9.86582C19.9912 9.87976 19.9939 9.8935 19.9953 9.90763C19.9983 9.93788 19.9998 9.96832 19.9999 9.99869C19.9999 9.99913 19.9999 9.99963 19.9999 10.0001C19.9999 10.0005 19.9999 10.001 19.9999 10.0014C19.9998 10.0319 19.9983 10.0623 19.9953 10.0926C19.9939 10.1065 19.9913 10.1201 19.9893 10.1339C19.9869 10.1504 19.985 10.1669 19.9818 10.1833C19.9786 10.199 19.9743 10.2143 19.9704 10.2297C19.9668 10.2439 19.9637 10.2582 19.9594 10.2723C19.9549 10.2873 19.9492 10.3019 19.9439 10.3166C19.9389 10.3308 19.9343 10.3449 19.9285 10.3588C19.9228 10.3726 19.9161 10.3858 19.9098 10.3992C19.903 10.4135 19.8966 10.4279 19.8891 10.442C19.8823 10.4548 19.8744 10.467 19.867 10.4794C19.8588 10.4933 19.851 10.5072 19.842 10.5206C19.8329 10.5343 19.8227 10.5471 19.8129 10.5603C19.8044 10.5716 19.7965 10.5833 19.7874 10.5943C19.7688 10.6171 19.7489 10.6389 19.7283 10.6598C19.7273 10.6608 19.7264 10.6619 19.7254 10.6629L16.913 13.4755C16.7298 13.6585 16.49 13.7501 16.25 13.7501C16.0101 13.75 15.7701 13.6585 15.5871 13.4755C15.221 13.1094 15.221 12.5159 15.5871 12.1497L16.7992 10.9375Z" fill="#333333"/>
<path d="M0.937472 1.5625H12.8124C13.3301 1.5625 13.7499 1.98225 13.7499 2.49999V6.24997C13.7499 6.76772 13.3301 7.18746 12.8124 7.18746C12.2946 7.18746 11.8749 6.76772 11.8749 6.24997V3.43749H1.87497V16.5625H11.8749V13.7499C11.8749 13.2322 12.2946 12.8124 12.8124 12.8124C13.3301 12.8124 13.7499 13.2322 13.7499 13.7499V17.5C13.7499 18.0177 13.3301 18.4375 12.8124 18.4375H0.937472C0.419726 18.4375 -2.09808e-05 18.0177 -2.09808e-05 17.5V2.49999C-2.09808e-05 1.98225 0.419726 1.5625 0.937472 1.5625Z" fill="#333333"/>
</g>
<defs>
<clipPath id="clip0">
<rect width="20" height="20" fill="white" transform="matrix(-1 0 0 1 20 0)"/>
</clipPath>
</defs>
</svg>
